<svg width="25" height="24" viewBox="0 0 25 24" fill="none" xmlns="http://www.w3.org/2000/svg">
<path d="M22.7969 6.25V11.35C22.7969 12.62 22.3769 13.69 21.6269 14.43C20.8869 15.18 19.8169 15.6 18.5469 15.6V17.41C18.5469 18.09 17.7869 18.5 17.2269 18.12L16.2569 17.48C16.3469 17.17 16.3869 16.83 16.3869 16.47V12.4C16.3869 10.36 15.0269 9 12.9869 9H6.19687C6.05687 9 5.92687 9.01002 5.79688 9.02002V6.25C5.79688 3.7 7.49688 2 10.0469 2H18.5469C21.0969 2 22.7969 3.7 22.7969 6.25Z" stroke="#A9A9A9" stroke-width="1.5" stroke-miterlimit="10" stroke-linecap="round" stroke-linejoin="round"/>
<path d="M16.3869 12.4V16.47C16.3869 16.83 16.3469 17.17 16.2569 17.48C15.8869 18.95 14.6669 19.87 12.9869 19.87H10.2669L7.24687 21.88C6.79687 22.19 6.19687 21.86 6.19687 21.32V19.87C5.17687 19.87 4.32688 19.53 3.73688 18.94C3.13688 18.34 2.79688 17.49 2.79688 16.47V12.4C2.79688 10.5 3.97687 9.19002 5.79688 9.02002C5.92687 9.01002 6.05687 9 6.19687 9H12.9869C15.0269 9 16.3869 10.36 16.3869 12.4Z" stroke="#A9A9A9" stroke-width="1.5" stroke-miterlimit="10" stroke-linecap="round" stroke-linejoin="round"/>
</svg>
