<svg width="25" height="24" viewBox="0 0 25 24" fill="none" xmlns="http://www.w3.org/2000/svg">
<path opacity="0.4" d="M16.7877 2H8.40766C4.76766 2 2.59766 4.17 2.59766 7.81V16.18C2.59766 19.83 4.76766 22 8.40766 22H16.7777C20.4177 22 22.5877 19.83 22.5877 16.19V7.81C22.5977 4.17 20.4277 2 16.7877 2Z" fill="#040F4F"/>
<path d="M16.3477 9.75H8.84766C8.43766 9.75 8.09766 9.41 8.09766 9C8.09766 8.59 8.43766 8.25 8.84766 8.25H16.3477C16.7577 8.25 17.0977 8.59 17.0977 9C17.0977 9.41 16.7577 9.75 16.3477 9.75Z" fill="#040F4F"/>
<path d="M16.3477 15.75H8.84766C8.43766 15.75 8.09766 15.41 8.09766 15C8.09766 14.59 8.43766 14.25 8.84766 14.25H16.3477C16.7577 14.25 17.0977 14.59 17.0977 15C17.0977 15.41 16.7577 15.75 16.3477 15.75Z" fill="#040F4F"/>
</svg>
