<svg width="25" height="24" viewBox="0 0 25 24" fill="none" xmlns="http://www.w3.org/2000/svg">
<path d="M19.5289 5.68027L13.2589 2.30027C12.5989 1.94027 11.7989 1.94027 11.1389 2.30027L4.86891 5.68027C4.40891 5.93027 4.12891 6.41027 4.12891 6.96027C4.12891 7.50027 4.40891 7.99027 4.86891 8.24027L11.1389 11.6203C11.4689 11.8003 11.8389 11.8903 12.1989 11.8903C12.5589 11.8903 12.9289 11.8003 13.2589 11.6203L19.5289 8.24027C19.9889 7.99027 20.2689 7.51027 20.2689 6.96027C20.2689 6.41027 19.9889 5.93027 19.5289 5.68027Z" fill="#05104F"/>
<path opacity="0.4" d="M10.1092 12.79L4.26922 9.87C3.81922 9.65 3.29922 9.67 2.87922 9.93C2.44922 10.2 2.19922 10.65 2.19922 11.15V16.66C2.19922 17.61 2.72922 18.47 3.57922 18.9L9.40922 21.82C9.60922 21.92 9.82922 21.97 10.0492 21.97C10.3092 21.97 10.5692 21.9 10.7992 21.76C11.2292 21.5 11.4792 21.04 11.4792 20.54V15.03C11.4892 14.07 10.9592 13.21 10.1092 12.79Z" fill="#05104F"/>
<path opacity="0.4" d="M21.518 9.93014C21.088 9.67014 20.568 9.64014 20.128 9.87014L14.298 12.7901C13.448 13.2201 12.918 14.0701 12.918 15.0301V20.5401C12.918 21.0401 13.168 21.5001 13.598 21.7601C13.828 21.9001 14.088 21.9701 14.348 21.9701C14.568 21.9701 14.788 21.9201 14.988 21.8201L20.818 18.9001C21.668 18.4701 22.198 17.6201 22.198 16.6601V11.1501C22.198 10.6501 21.948 10.2001 21.518 9.93014Z" fill="#05104F"/>
</svg>
