<svg width="25" height="24" viewBox="0 0 25 24" fill="none" xmlns="http://www.w3.org/2000/svg">
<path d="M13.1192 2.25984L19.6292 5.76984C20.3892 6.17984 20.3892 7.34984 19.6292 7.75984L13.1192 11.2698C12.5392 11.5798 11.8592 11.5798 11.2792 11.2698L4.76922 7.75984C4.00922 7.34984 4.00922 6.17984 4.76922 5.76984L11.2792 2.25984C11.8592 1.94984 12.5392 1.94984 13.1192 2.25984Z" stroke="#A9A9A9" stroke-width="1.5" stroke-linecap="round" stroke-linejoin="round"/>
<path d="M3.80922 10.1297L9.85922 13.1597C10.6092 13.5397 11.0892 14.3097 11.0892 15.1497V20.8697C11.0892 21.6997 10.2192 22.2297 9.47922 21.8597L3.42922 18.8297C2.67922 18.4497 2.19922 17.6797 2.19922 16.8397V11.1197C2.19922 10.2897 3.06922 9.75968 3.80922 10.1297Z" stroke="#A9A9A9" stroke-width="1.5" stroke-linecap="round" stroke-linejoin="round"/>
<path d="M20.5886 10.1297L14.5386 13.1597C13.7886 13.5397 13.3086 14.3097 13.3086 15.1497V20.8697C13.3086 21.6997 14.1786 22.2297 14.9186 21.8597L20.9686 18.8297C21.7186 18.4497 22.1986 17.6797 22.1986 16.8397V11.1197C22.1986 10.2897 21.3286 9.75968 20.5886 10.1297Z" stroke="#A9A9A9" stroke-width="1.5" stroke-linecap="round" stroke-linejoin="round"/>
</svg>
