<svg width="25" height="24" viewBox="0 0 25 24" fill="none" xmlns="http://www.w3.org/2000/svg">
<path d="M18.795 7.16C18.735 7.15 18.665 7.15 18.605 7.16C17.225 7.11 16.125 5.98 16.125 4.58C16.125 3.15 17.275 2 18.705 2C20.135 2 21.285 3.16 21.285 4.58C21.275 5.98 20.175 7.11 18.795 7.16Z" stroke="#A9A9A9" stroke-width="1.5" stroke-linecap="round" stroke-linejoin="round"/>
<path d="M17.7644 14.4402C19.1344 14.6702 20.6444 14.4302 21.7044 13.7202C23.1144 12.7802 23.1144 11.2402 21.7044 10.3002C20.6344 9.59016 19.1044 9.35016 17.7344 9.59016" stroke="#A9A9A9" stroke-width="1.5" stroke-linecap="round" stroke-linejoin="round"/>
<path d="M6.76735 7.16C6.82735 7.15 6.89734 7.15 6.95734 7.16C8.33734 7.11 9.43734 5.98 9.43734 4.58C9.43734 3.15 8.28735 2 6.85735 2C5.42735 2 4.27734 3.16 4.27734 4.58C4.28734 5.98 5.38735 7.11 6.76735 7.16Z" stroke="#A9A9A9" stroke-width="1.5" stroke-linecap="round" stroke-linejoin="round"/>
<path d="M7.79828 14.4402C6.42828 14.6702 4.91828 14.4302 3.85828 13.7202C2.44828 12.7802 2.44828 11.2402 3.85828 10.3002C4.92828 9.59016 6.45828 9.35016 7.82828 9.59016" stroke="#A9A9A9" stroke-width="1.5" stroke-linecap="round" stroke-linejoin="round"/>
<path d="M12.795 14.6297C12.735 14.6197 12.665 14.6197 12.605 14.6297C11.225 14.5797 10.125 13.4497 10.125 12.0497C10.125 10.6197 11.275 9.46973 12.705 9.46973C14.135 9.46973 15.285 10.6297 15.285 12.0497C15.275 13.4497 14.175 14.5897 12.795 14.6297Z" stroke="#A9A9A9" stroke-width="1.5" stroke-linecap="round" stroke-linejoin="round"/>
<path d="M9.88563 17.7794C8.47563 18.7194 8.47563 20.2594 9.88563 21.1994C11.4856 22.2694 14.1056 22.2694 15.7056 21.1994C17.1156 20.2594 17.1156 18.7194 15.7056 17.7794C14.1156 16.7194 11.4856 16.7194 9.88563 17.7794Z" stroke="#A9A9A9" stroke-width="1.5" stroke-linecap="round" stroke-linejoin="round"/>
</svg>
