<svg width="25" height="24" viewBox="0 0 25 24" fill="none" xmlns="http://www.w3.org/2000/svg">
<path opacity="0.4" d="M18.3259 7.77C18.2559 7.76 18.1859 7.76 18.1159 7.77C16.5659 7.72 15.3359 6.45 15.3359 4.89C15.3359 3.3 16.6259 2 18.2259 2C19.8159 2 21.1159 3.29 21.1159 4.89C21.1059 6.45 19.8759 7.72 18.3259 7.77Z" fill="#05104F"/>
<path opacity="0.4" d="M21.5884 14.7004C20.4684 15.4504 18.8984 15.7304 17.4484 15.5404C17.8284 14.7204 18.0284 13.8104 18.0384 12.8504C18.0384 11.8504 17.8184 10.9004 17.3984 10.0704C18.8784 9.8704 20.4484 10.1504 21.5784 10.9004C23.1584 11.9404 23.1584 13.6504 21.5884 14.7004Z" fill="#05104F"/>
<path opacity="0.4" d="M7.23531 7.77C7.30531 7.76 7.37531 7.76 7.44531 7.77C8.99531 7.72 10.2253 6.45 10.2253 4.89C10.2253 3.3 8.93531 2 7.33531 2C5.74531 2 4.44531 3.29 4.44531 4.89C4.45531 6.45 5.68531 7.72 7.23531 7.77Z" fill="#05104F"/>
<path opacity="0.4" d="M7.34797 12.8496C7.34797 13.8196 7.55797 14.7396 7.93797 15.5696C6.52797 15.7196 5.05797 15.4196 3.97797 14.7096C2.39797 13.6596 2.39797 11.9496 3.97797 10.8996C5.04797 10.1796 6.55797 9.88962 7.97797 10.0496C7.56797 10.8896 7.34797 11.8396 7.34797 12.8496Z" fill="#05104F"/>
<path d="M12.9177 15.87C12.8377 15.86 12.7477 15.86 12.6577 15.87C10.8177 15.81 9.34766 14.3 9.34766 12.44C9.34766 10.54 10.8777 9 12.7877 9C14.6877 9 16.2277 10.54 16.2277 12.44C16.2277 14.3 14.7677 15.81 12.9177 15.87Z" fill="#05104F"/>
<path d="M9.66766 17.9396C8.15766 18.9496 8.15766 20.6096 9.66766 21.6096C11.3877 22.7596 14.2077 22.7596 15.9277 21.6096C17.4377 20.5996 17.4377 18.9396 15.9277 17.9396C14.2177 16.7896 11.3977 16.7896 9.66766 17.9396Z" fill="#05104F"/>
</svg>
