<svg width="25" height="24" viewBox="0 0 25 24" fill="none" xmlns="http://www.w3.org/2000/svg">
<path opacity="0.4" d="M10.4677 2.81986L3.53773 8.36985C2.75773 8.98985 2.25773 10.2999 2.42773 11.2799L3.75773 19.2398C3.99773 20.6598 5.35772 21.8099 6.79772 21.8099H17.9977C19.4277 21.8099 20.7977 20.6498 21.0377 19.2398L22.3677 11.2799C22.5277 10.2999 22.0277 8.98985 21.2577 8.36985L14.3277 2.82984C13.2577 1.96984 11.5277 1.96986 10.4677 2.81986Z" fill="#05104F"/>
<path d="M12.3984 15.5C13.7791 15.5 14.8984 14.3807 14.8984 13C14.8984 11.6193 13.7791 10.5 12.3984 10.5C11.0177 10.5 9.89844 11.6193 9.89844 13C9.89844 14.3807 11.0177 15.5 12.3984 15.5Z" fill="#05104F"/>
</svg>
