<svg width="24" height="24" viewBox="0 0 24 24" fill="none" xmlns="http://www.w3.org/2000/svg">
<path opacity="0.4" d="M13 3.25H7C3.58 3.25 2.25 4.58 2.25 8V16C2.25 18.3 3.5 20.75 7 20.75H13C16.42 20.75 17.75 19.42 17.75 16V8C17.75 4.58 16.42 3.25 13 3.25Z" fill="#05104F"/>
<path d="M11.5011 11.3801C12.5394 11.3801 13.3811 10.5384 13.3811 9.50012C13.3811 8.46182 12.5394 7.62012 11.5011 7.62012C10.4628 7.62012 9.62109 8.46182 9.62109 9.50012C9.62109 10.5384 10.4628 11.3801 11.5011 11.3801Z" fill="#05104F"/>
<path d="M21.6505 6.16962C21.2405 5.95962 20.3805 5.71962 19.2105 6.53962L17.7305 7.57962C17.7405 7.71962 17.7505 7.84962 17.7505 7.99962V15.9996C17.7505 16.1496 17.7305 16.2796 17.7305 16.4196L19.2105 17.4596C19.8305 17.8996 20.3705 18.0396 20.8005 18.0396C21.1705 18.0396 21.4605 17.9396 21.6505 17.8396C22.0605 17.6296 22.7505 17.0596 22.7505 15.6296V8.37962C22.7505 6.94962 22.0605 6.37962 21.6505 6.16962Z" fill="#05104F"/>
</svg>
