<svg width="25" height="24" viewBox="0 0 25 24" fill="none" xmlns="http://www.w3.org/2000/svg">
<path opacity="0.4" d="M18.1267 7.77C18.0567 7.76 17.9867 7.76 17.9167 7.77C16.3667 7.72 15.1367 6.45 15.1367 4.89C15.1367 3.3 16.4267 2 18.0267 2C19.6167 2 20.9167 3.29 20.9167 4.89C20.9067 6.45 19.6767 7.72 18.1267 7.77Z" fill="#05104F"/>
<path opacity="0.4" d="M21.3892 14.7004C20.2692 15.4504 18.6992 15.7304 17.2492 15.5404C17.6292 14.7204 17.8292 13.8104 17.8392 12.8504C17.8392 11.8504 17.6192 10.9004 17.1992 10.0704C18.6792 9.8704 20.2492 10.1504 21.3792 10.9004C22.9592 11.9404 22.9592 13.6504 21.3892 14.7004Z" fill="#05104F"/>
<path opacity="0.4" d="M7.03609 7.77C7.10609 7.76 7.17609 7.76 7.24609 7.77C8.79609 7.72 10.0261 6.45 10.0261 4.89C10.0261 3.3 8.73609 2 7.13609 2C5.54609 2 4.24609 3.29 4.24609 4.89C4.25609 6.45 5.48609 7.72 7.03609 7.77Z" fill="#05104F"/>
<path opacity="0.4" d="M7.14875 12.8506C7.14875 13.8206 7.35875 14.7406 7.73875 15.5706C6.32875 15.7206 4.85875 15.4206 3.77875 14.7106C2.19875 13.6606 2.19875 11.9506 3.77875 10.9006C4.84875 10.1806 6.35875 9.89059 7.77875 10.0506C7.36875 10.8906 7.14875 11.8406 7.14875 12.8506Z" fill="#05104F"/>
<path d="M12.7184 15.87C12.6384 15.86 12.5484 15.86 12.4584 15.87C10.6184 15.81 9.14844 14.3 9.14844 12.44C9.14844 10.54 10.6784 9 12.5884 9C14.4884 9 16.0284 10.54 16.0284 12.44C16.0284 14.3 14.5684 15.81 12.7184 15.87Z" fill="#05104F"/>
<path d="M9.46844 17.9406C7.95844 18.9506 7.95844 20.6106 9.46844 21.6106C11.1884 22.7606 14.0084 22.7606 15.7284 21.6106C17.2384 20.6006 17.2384 18.9406 15.7284 17.9406C14.0184 16.7906 11.1984 16.7906 9.46844 17.9406Z" fill="#05104F"/>
</svg>
