<svg width="25" height="24" viewBox="0 0 25 24" fill="none" xmlns="http://www.w3.org/2000/svg">
<path d="M18.5958 7.16C18.5358 7.15 18.4658 7.15 18.4058 7.16C17.0258 7.11 15.9258 5.98 15.9258 4.58C15.9258 3.15 17.0758 2 18.5058 2C19.9358 2 21.0858 3.16 21.0858 4.58C21.0758 5.98 19.9758 7.11 18.5958 7.16Z" stroke="#A9A9A9" stroke-width="1.5" stroke-linecap="round" stroke-linejoin="round"/>
<path d="M17.5652 14.4402C18.9352 14.6702 20.4452 14.4302 21.5052 13.7202C22.9152 12.7802 22.9152 11.2402 21.5052 10.3002C20.4352 9.59016 18.9052 9.35016 17.5352 9.59016" stroke="#A9A9A9" stroke-width="1.5" stroke-linecap="round" stroke-linejoin="round"/>
<path d="M6.56813 7.16C6.62813 7.15 6.69813 7.15 6.75813 7.16C8.13813 7.11 9.23812 5.98 9.23812 4.58C9.23812 3.15 8.08813 2 6.65813 2C5.22813 2 4.07812 3.16 4.07812 4.58C4.08812 5.98 5.18813 7.11 6.56813 7.16Z" stroke="#A9A9A9" stroke-width="1.5" stroke-linecap="round" stroke-linejoin="round"/>
<path d="M7.59906 14.4402C6.22906 14.6702 4.71906 14.4302 3.65906 13.7202C2.24906 12.7802 2.24906 11.2402 3.65906 10.3002C4.72906 9.59016 6.25906 9.35016 7.62906 9.59016" stroke="#A9A9A9" stroke-width="1.5" stroke-linecap="round" stroke-linejoin="round"/>
<path d="M12.5958 14.6307C12.5358 14.6207 12.4658 14.6207 12.4058 14.6307C11.0258 14.5807 9.92578 13.4507 9.92578 12.0507C9.92578 10.6207 11.0758 9.4707 12.5058 9.4707C13.9358 9.4707 15.0858 10.6307 15.0858 12.0507C15.0758 13.4507 13.9758 14.5907 12.5958 14.6307Z" stroke="#A9A9A9" stroke-width="1.5" stroke-linecap="round" stroke-linejoin="round"/>
<path d="M9.68641 17.7813C8.27641 18.7213 8.27641 20.2613 9.68641 21.2013C11.2864 22.2713 13.9064 22.2713 15.5064 21.2013C16.9164 20.2613 16.9164 18.7213 15.5064 17.7813C13.9164 16.7213 11.2864 16.7213 9.68641 17.7813Z" stroke="#A9A9A9" stroke-width="1.5" stroke-linecap="round" stroke-linejoin="round"/>
</svg>
